%TF.GenerationSoftware,KiCad,Pcbnew,7.0.2*%
%TF.CreationDate,2024-04-28T14:33:42+04:00*%
%TF.ProjectId,Hope,486f7065-2e6b-4696-9361-645f70636258,rev?*%
%TF.SameCoordinates,Original*%
%TF.FileFunction,Plated,1,2,PTH,Drill*%
%TF.FilePolarity,Positive*%
%FSLAX46Y46*%
G04 Gerber Fmt 4.6, Leading zero omitted, Abs format (unit mm)*
G04 Created by KiCad (PCBNEW 7.0.2) date 2024-04-28 14:33:42*
%MOMM*%
%LPD*%
G01*
G04 APERTURE LIST*
%TA.AperFunction,ViaDrill*%
%ADD10C,0.400000*%
%TD*%
%TA.AperFunction,ComponentDrill*%
%ADD11C,0.500000*%
%TD*%
%TA.AperFunction,ComponentDrill*%
%ADD12C,0.800000*%
%TD*%
%TA.AperFunction,ComponentDrill*%
%ADD13C,1.000000*%
%TD*%
%TA.AperFunction,ComponentDrill*%
%ADD14C,1.100000*%
%TD*%
%TA.AperFunction,ComponentDrill*%
%ADD15C,1.200000*%
%TD*%
%TA.AperFunction,ComponentDrill*%
%ADD16C,1.300000*%
%TD*%
%TA.AperFunction,ComponentDrill*%
%ADD17C,1.600000*%
%TD*%
%TA.AperFunction,ComponentDrill*%
%ADD18C,2.000000*%
%TD*%
%TA.AperFunction,ComponentDrill*%
%ADD19C,3.200000*%
%TD*%
G04 APERTURE END LIST*
D10*
X108500000Y-94500000D03*
X109000000Y-82250000D03*
X109250000Y-76500000D03*
X111000000Y-86250000D03*
X116750000Y-101000000D03*
X117250000Y-103750000D03*
X130000000Y-97500000D03*
X131000000Y-76750000D03*
X133250000Y-91500000D03*
X133250000Y-114000000D03*
X136250000Y-91750000D03*
X138000000Y-67500000D03*
X138250000Y-70500000D03*
X140500000Y-92750000D03*
X142750000Y-60750000D03*
X147250000Y-128000000D03*
X148500000Y-143500000D03*
X150750000Y-120000000D03*
X153750000Y-118750000D03*
X154500000Y-118000000D03*
X154750000Y-101000000D03*
X157000000Y-99750000D03*
X158250000Y-101250000D03*
X158500000Y-105250000D03*
X161250000Y-118000000D03*
X161500000Y-101250000D03*
D11*
%TO.C,H1*%
X92600000Y-65000000D03*
%TO.C,H4*%
X92600000Y-145000000D03*
%TO.C,H1*%
X93302944Y-63302944D03*
X93302944Y-66697056D03*
%TO.C,H4*%
X93302944Y-143302944D03*
X93302944Y-146697056D03*
%TO.C,H1*%
X95000000Y-62600000D03*
X95000000Y-67400000D03*
%TO.C,H4*%
X95000000Y-142600000D03*
X95000000Y-147400000D03*
%TO.C,H1*%
X96697056Y-63302944D03*
X96697056Y-66697056D03*
%TO.C,H4*%
X96697056Y-143302944D03*
X96697056Y-146697056D03*
%TO.C,H1*%
X97400000Y-65000000D03*
%TO.C,H4*%
X97400000Y-145000000D03*
%TO.C,H2*%
X162600000Y-65000000D03*
%TO.C,H3*%
X162600000Y-145000000D03*
%TO.C,H2*%
X163302944Y-63302944D03*
X163302944Y-66697056D03*
%TO.C,H3*%
X163302944Y-143302944D03*
X163302944Y-146697056D03*
%TO.C,H2*%
X165000000Y-62600000D03*
X165000000Y-67400000D03*
%TO.C,H3*%
X165000000Y-142600000D03*
X165000000Y-147400000D03*
%TO.C,H2*%
X166697056Y-63302944D03*
X166697056Y-66697056D03*
%TO.C,H3*%
X166697056Y-143302944D03*
X166697056Y-146697056D03*
%TO.C,H2*%
X167400000Y-65000000D03*
%TO.C,H3*%
X167400000Y-145000000D03*
D12*
%TO.C,U4*%
X119700000Y-80225000D03*
X119700000Y-82765000D03*
%TO.C,U5*%
X119700000Y-87975000D03*
X119700000Y-90515000D03*
%TO.C,C12*%
X121750000Y-110000000D03*
X121750000Y-115000000D03*
%TO.C,U4*%
X127320000Y-80225000D03*
X127320000Y-82765000D03*
%TO.C,U5*%
X127320000Y-87975000D03*
X127320000Y-90515000D03*
%TO.C,C5*%
X132000000Y-62750000D03*
X137000000Y-62750000D03*
%TO.C,C8*%
X138770000Y-98000000D03*
%TO.C,C11*%
X138770000Y-101750000D03*
%TO.C,C9*%
X138770000Y-105750000D03*
%TO.C,C8*%
X143770000Y-98000000D03*
%TO.C,C11*%
X143770000Y-101750000D03*
%TO.C,C9*%
X143770000Y-105750000D03*
D13*
%TO.C,J1*%
X133950000Y-110750000D03*
X136490000Y-110750000D03*
X139030000Y-110750000D03*
X141570000Y-110750000D03*
D14*
%TO.C,SW1*%
X111500000Y-110250000D03*
X111500000Y-114750000D03*
X118000000Y-110250000D03*
X118000000Y-114750000D03*
D15*
%TO.C,C1*%
X159926041Y-76250000D03*
%TO.C,C6*%
X159926041Y-89750000D03*
%TO.C,C1*%
X164926041Y-76250000D03*
%TO.C,C6*%
X164926041Y-89750000D03*
D16*
%TO.C,J4*%
X99250000Y-71955000D03*
X99250000Y-77035000D03*
%TO.C,J2*%
X99250000Y-83455000D03*
X99250000Y-88535000D03*
%TO.C,J3*%
X99950000Y-95165000D03*
X99950000Y-100245000D03*
X99950000Y-105325000D03*
%TO.C,J5*%
X99950000Y-111665000D03*
X99950000Y-116745000D03*
X99950000Y-121825000D03*
%TO.C,J6*%
X99950000Y-128165000D03*
X99950000Y-133245000D03*
X99950000Y-138325000D03*
%TO.C,K1*%
X109310000Y-123500000D03*
X109310000Y-131000000D03*
%TO.C,K2*%
X109310000Y-138250000D03*
X109310000Y-145750000D03*
%TO.C,K1*%
X114350000Y-123500000D03*
X114350000Y-131000000D03*
%TO.C,K2*%
X114350000Y-138250000D03*
X114350000Y-145750000D03*
%TO.C,K1*%
X119390000Y-123500000D03*
X119390000Y-131000000D03*
%TO.C,K2*%
X119390000Y-138250000D03*
X119390000Y-145750000D03*
%TO.C,K1*%
X134650000Y-123500000D03*
X134650000Y-131000000D03*
%TO.C,K2*%
X134650000Y-138250000D03*
X134650000Y-145750000D03*
%TO.C,L1*%
X147250000Y-90000000D03*
X152250000Y-90000000D03*
D17*
%TO.C,D3*%
X150250000Y-74960000D03*
X150250000Y-80040000D03*
D18*
%TO.C,F1*%
X106300000Y-64250000D03*
X129200000Y-64250000D03*
D19*
%TO.C,H1*%
X95000000Y-65000000D03*
%TO.C,H4*%
X95000000Y-145000000D03*
%TO.C,H2*%
X165000000Y-65000000D03*
%TO.C,H3*%
X165000000Y-145000000D03*
M02*
