%TF.GenerationSoftware,KiCad,Pcbnew,7.0.2*%
%TF.CreationDate,2024-04-28T14:31:10+04:00*%
%TF.ProjectId,Hope,486f7065-2e6b-4696-9361-645f70636258,rev?*%
%TF.SameCoordinates,Original*%
%TF.FileFunction,Paste,Top*%
%TF.FilePolarity,Positive*%
%FSLAX46Y46*%
G04 Gerber Fmt 4.6, Leading zero omitted, Abs format (unit mm)*
G04 Created by KiCad (PCBNEW 7.0.2) date 2024-04-28 14:31:10*
%MOMM*%
%LPD*%
G01*
G04 APERTURE LIST*
G04 Aperture macros list*
%AMRoundRect*
0 Rectangle with rounded corners*
0 $1 Rounding radius*
0 $2 $3 $4 $5 $6 $7 $8 $9 X,Y pos of 4 corners*
0 Add a 4 corners polygon primitive as box body*
4,1,4,$2,$3,$4,$5,$6,$7,$8,$9,$2,$3,0*
0 Add four circle primitives for the rounded corners*
1,1,$1+$1,$2,$3*
1,1,$1+$1,$4,$5*
1,1,$1+$1,$6,$7*
1,1,$1+$1,$8,$9*
0 Add four rect primitives between the rounded corners*
20,1,$1+$1,$2,$3,$4,$5,0*
20,1,$1+$1,$4,$5,$6,$7,0*
20,1,$1+$1,$6,$7,$8,$9,0*
20,1,$1+$1,$8,$9,$2,$3,0*%
G04 Aperture macros list end*
%ADD10R,0.900000X1.500000*%
%ADD11R,0.700000X0.700000*%
%ADD12RoundRect,0.250000X0.400000X0.625000X-0.400000X0.625000X-0.400000X-0.625000X0.400000X-0.625000X0*%
%ADD13RoundRect,0.250001X-0.462499X-0.624999X0.462499X-0.624999X0.462499X0.624999X-0.462499X0.624999X0*%
%ADD14RoundRect,0.250000X-0.400000X-0.625000X0.400000X-0.625000X0.400000X0.625000X-0.400000X0.625000X0*%
%ADD15RoundRect,0.225000X0.225000X0.375000X-0.225000X0.375000X-0.225000X-0.375000X0.225000X-0.375000X0*%
%ADD16RoundRect,0.250000X-0.412500X-0.650000X0.412500X-0.650000X0.412500X0.650000X-0.412500X0.650000X0*%
%ADD17RoundRect,0.225000X-0.375000X0.225000X-0.375000X-0.225000X0.375000X-0.225000X0.375000X0.225000X0*%
%ADD18RoundRect,0.250001X0.462499X0.624999X-0.462499X0.624999X-0.462499X-0.624999X0.462499X-0.624999X0*%
%ADD19RoundRect,0.250000X0.300000X-2.050000X0.300000X2.050000X-0.300000X2.050000X-0.300000X-2.050000X0*%
%ADD20RoundRect,0.250000X2.375000X-2.025000X2.375000X2.025000X-2.375000X2.025000X-2.375000X-2.025000X0*%
%ADD21RoundRect,0.250000X-0.625000X0.400000X-0.625000X-0.400000X0.625000X-0.400000X0.625000X0.400000X0*%
%ADD22R,1.250000X0.600000*%
%ADD23R,2.000000X1.500000*%
%ADD24R,2.000000X3.800000*%
%ADD25RoundRect,0.150000X0.587500X0.150000X-0.587500X0.150000X-0.587500X-0.150000X0.587500X-0.150000X0*%
G04 APERTURE END LIST*
D10*
%TO.C,U3*%
X165100000Y-103140000D03*
X163600000Y-103140000D03*
X162100000Y-103140000D03*
X160600000Y-103140000D03*
X159100000Y-103140000D03*
X157600000Y-103140000D03*
X156100000Y-103140000D03*
X154600000Y-103140000D03*
X153100000Y-103140000D03*
X153100000Y-120640000D03*
X154600000Y-120640000D03*
X156100000Y-120640000D03*
X157600000Y-120640000D03*
X159100000Y-120640000D03*
X160600000Y-120640000D03*
X162100000Y-120640000D03*
X163600000Y-120640000D03*
X165100000Y-120640000D03*
D11*
X160000000Y-111750000D03*
X158900000Y-111750000D03*
X157800000Y-111750000D03*
X160000000Y-112800000D03*
X158900000Y-112800000D03*
X157800000Y-112800000D03*
X160000000Y-113950000D03*
X158900000Y-113950000D03*
X157800000Y-113950000D03*
%TD*%
D12*
%TO.C,R16*%
X162700000Y-130700000D03*
X165800000Y-130700000D03*
%TD*%
D13*
%TO.C,DL1*%
X108162500Y-84056666D03*
X111137500Y-84056666D03*
%TD*%
D14*
%TO.C,R3*%
X139700000Y-70000000D03*
X142800000Y-70000000D03*
%TD*%
D15*
%TO.C,D11*%
X111400000Y-92750000D03*
X108100000Y-92750000D03*
%TD*%
D16*
%TO.C,C10*%
X132500000Y-101500000D03*
X135625000Y-101500000D03*
%TD*%
%TO.C,C4*%
X132500000Y-98000000D03*
X135625000Y-98000000D03*
%TD*%
D17*
%TO.C,D6*%
X139000000Y-125600000D03*
X139000000Y-128900000D03*
%TD*%
D14*
%TO.C,R2*%
X139700000Y-66250000D03*
X142800000Y-66250000D03*
%TD*%
D12*
%TO.C,R9*%
X146800000Y-144250000D03*
X143700000Y-144250000D03*
%TD*%
D14*
%TO.C,R14*%
X113200000Y-88503334D03*
X116300000Y-88503334D03*
%TD*%
D16*
%TO.C,C2*%
X132500000Y-94500000D03*
X135625000Y-94500000D03*
%TD*%
D14*
%TO.C,R8*%
X138950000Y-136750000D03*
X142050000Y-136750000D03*
%TD*%
D12*
%TO.C,R17*%
X162700000Y-127000000D03*
X165800000Y-127000000D03*
%TD*%
D18*
%TO.C,DL8*%
X145012500Y-66250000D03*
X147987500Y-66250000D03*
%TD*%
%TO.C,DL9*%
X148032500Y-70000000D03*
X145057500Y-70000000D03*
%TD*%
D16*
%TO.C,C3*%
X132937500Y-66750000D03*
X136062500Y-66750000D03*
%TD*%
D14*
%TO.C,R6*%
X132482500Y-105000000D03*
X135582500Y-105000000D03*
%TD*%
D13*
%TO.C,DL6*%
X160487500Y-130750000D03*
X157512500Y-130750000D03*
%TD*%
D12*
%TO.C,R13*%
X116300000Y-92750000D03*
X113200000Y-92750000D03*
%TD*%
D13*
%TO.C,DL3*%
X144512500Y-122250000D03*
X147487500Y-122250000D03*
%TD*%
%TO.C,DL4*%
X144512500Y-136750000D03*
X147487500Y-136750000D03*
%TD*%
%TO.C,DL2*%
X108162500Y-88500000D03*
X111137500Y-88500000D03*
%TD*%
D17*
%TO.C,D8*%
X139000000Y-140350000D03*
X139000000Y-143650000D03*
%TD*%
D13*
%TO.C,DL5*%
X160487500Y-127050000D03*
X157512500Y-127050000D03*
%TD*%
D14*
%TO.C,R12*%
X113200000Y-84083333D03*
X116300000Y-84083333D03*
%TD*%
D19*
%TO.C,U2*%
X134100000Y-88150000D03*
X135800000Y-88150000D03*
X137500000Y-88150000D03*
D20*
X134725000Y-81425000D03*
X140275000Y-81425000D03*
X134725000Y-76575000D03*
X140275000Y-76575000D03*
D19*
X139200000Y-88150000D03*
X140900000Y-88150000D03*
%TD*%
D14*
%TO.C,R4*%
X138950000Y-122250000D03*
X142050000Y-122250000D03*
%TD*%
D12*
%TO.C,R10*%
X146800000Y-140500000D03*
X143700000Y-140500000D03*
%TD*%
%TO.C,R7*%
X146800000Y-126250000D03*
X143700000Y-126250000D03*
%TD*%
D18*
%TO.C,DL7*%
X145012500Y-62500000D03*
X147987500Y-62500000D03*
%TD*%
D14*
%TO.C,R1*%
X139700000Y-62500000D03*
X142800000Y-62500000D03*
%TD*%
D21*
%TO.C,R15*%
X125250000Y-110950000D03*
X125250000Y-114050000D03*
%TD*%
D22*
%TO.C,FB1*%
X102000000Y-65400000D03*
X102000000Y-63600000D03*
%TD*%
D12*
%TO.C,R11*%
X113200000Y-79750000D03*
X116300000Y-79750000D03*
%TD*%
%TO.C,R5*%
X146800000Y-129750000D03*
X143700000Y-129750000D03*
%TD*%
D15*
%TO.C,D9*%
X108100000Y-79720000D03*
X111400000Y-79720000D03*
%TD*%
D23*
%TO.C,U1*%
X114850000Y-99700000D03*
X114850000Y-102000000D03*
D24*
X121150000Y-102000000D03*
D23*
X114850000Y-104300000D03*
%TD*%
D25*
%TO.C,Q2*%
X141187500Y-147700000D03*
X141187500Y-145800000D03*
X139312500Y-146750000D03*
%TD*%
D16*
%TO.C,C7*%
X138437500Y-94500000D03*
X141562500Y-94500000D03*
%TD*%
D25*
%TO.C,Q1*%
X141187500Y-132950000D03*
X141187500Y-131050000D03*
X139312500Y-132000000D03*
%TD*%
M02*
